<?xml version="1.0" standalone="no"?>
<!DOCTYPE svg PUBLIC "-//W3C//DTD SVG 20010904//EN"
 "http://www.w3.org/TR/2001/REC-SVG-20010904/DTD/svg10.dtd">
<svg version="1.0" xmlns="http://www.w3.org/2000/svg"
 width="64.000000pt" height="64.000000pt" viewBox="0 0 64.000000 64.000000"
 preserveAspectRatio="xMidYMid meet">

<g transform="translate(0.000000,64.000000) scale(0.100000,-0.100000)"
fill="#000000" stroke="none">
<path d="M275 631 c-48 -21 -95 -116 -95 -192 0 -25 -8 -32 -75 -64 -73 -35
-75 -38 -90 -87 -16 -55 -20 -112 -7 -106 4 2 18 9 32 16 24 12 29 10 63 -22
l37 -35 -6 -70 c-4 -39 -3 -71 1 -71 5 0 30 14 56 30 l47 31 31 -31 c24 -24
38 -31 62 -28 30 3 37 10 59 57 3 8 14 19 24 25 13 9 20 6 34 -12 23 -30 72
-62 96 -62 20 0 19 14 -8 100 -13 44 -13 47 11 74 23 27 26 28 51 15 15 -7 30
-15 35 -17 12 -6 8 51 -8 106 -15 49 -17 52 -90 87 -67 32 -75 39 -75 64 0 47
-30 130 -58 162 -29 32 -89 47 -127 30z m104 -37 c34 -28 61 -102 61 -165 0
-52 11 -99 23 -99 5 0 7 13 4 29 l-6 30 44 -22 c36 -18 43 -26 37 -42 -3 -11
-7 -47 -7 -79 0 -79 -18 -82 -39 -6 -9 33 -21 60 -27 60 -13 0 -13 -3 31 -140
21 -68 38 -126 35 -128 -7 -7 -44 18 -64 43 -11 15 -30 56 -42 93 -26 80 -28
84 -39 77 -5 -3 1 -33 12 -66 l21 -61 -26 -22 c-15 -11 -31 -33 -36 -48 -13
-35 -49 -37 -80 -4 -20 21 -21 30 -15 90 4 42 3 66 -3 66 -6 0 -13 -26 -17
-57 -6 -54 -9 -60 -49 -85 -23 -15 -43 -23 -45 -18 -4 10 14 135 25 177 3 13
1 23 -5 23 -6 0 -14 -16 -18 -35 -7 -39 -15 -43 -38 -19 -12 11 -16 31 -14 67
2 29 0 61 -4 72 -6 16 1 24 37 42 l44 22 -6 -30 c-3 -16 -1 -29 5 -29 11 0 22
47 22 99 0 63 27 137 61 165 39 33 79 33 118 0z"/>
<path d="M224 508 c-8 -13 39 -58 62 -58 16 0 18 23 4 51 -12 21 -55 26 -66 7z"/>
<path d="M350 501 c-14 -28 -12 -51 4 -51 23 0 70 45 62 58 -11 19 -54 14 -66
-7z"/>
<path d="M220 410 c0 -12 13 -35 29 -51 23 -23 38 -29 71 -29 33 0 48 6 71 29
29 29 41 78 17 67 -75 -30 -101 -30 -175 0 -8 4 -13 -3 -13 -16z"/>
<path d="M367 304 c-8 -8 3 -34 14 -34 11 0 12 27 0 34 -4 3 -11 3 -14 0z"/>
<path d="M260 239 c0 -11 5 -17 10 -14 6 3 10 13 10 21 0 8 -4 14 -10 14 -5 0
-10 -9 -10 -21z"/>
</g>
</svg>
